<svg xmlns="http://www.w3.org/2000/svg" viewBox="0 0 1305.09 481.81"><defs><style>.cls-1{fill:#fff;}</style></defs><g id="Layer_2" data-name="Layer 2"><g id="Layer_1-2" data-name="Layer 1"><path class="cls-1" d="M468.93,43.9,365.76,456.6c-3.47,13.87-18,25.21-32.29,25.21H119.82L174.21,373c3-6.07,11.07-11,17.86-11H248.8c11.43,0,23.06-9.08,25.83-20.17L323.3,147.17c3.41-13.64-5.31-24.81-19.38-24.81H225.27c-8.57,0-17.29,6.81-19.37,15.13L119.82,481.81H0L119.82,2.54H436.64C460.09,2.54,474.62,21.15,468.93,43.9Z"/><path class="cls-1" d="M625.81,133.71,574.67,338.26a17.55,17.55,0,0,0,17,21.8h83.64a17.55,17.55,0,0,0,17-13.31l22.06-88.59c1.2-4.81,4.76-10.94,8.61-15.17a17.17,17.17,0,0,1,5.45-4l125.31-58.71L786,451.46c-3.91,15.63-20.28,28.42-36.39,28.42H441.92a17.55,17.55,0,0,1-17-21.8L532.17,29C536.07,13.39,552.45.61,568.56.61h307.7a17.53,17.53,0,0,1,17,21.79l-21.18,84.74a17.54,17.54,0,0,1-17,13.28H642.83A17.54,17.54,0,0,0,625.81,133.71Z"/><path class="cls-1" d="M939.27,0h35.24c41.36,0,53.18,28.89,43.11,77.69-10.29,49.46-26.26,70-64.78,70H907.76Zm6.79,123h4.59c15.76,0,24.73-4.38,33.05-46.61C992.45,33.05,988.07,25,970.13,25h-3.28Z"/><path class="cls-1" d="M1085.25,0l-31.51,147.72h-33L1052.21,0Z"/><path class="cls-1" d="M1122.46,86.23l-12.91,61.49h-32.83L1108.24,0H1152c33.48,0,44.64,20.14,39,45.74-4.38,19.26-16,26.48-26,29.32,9.85,5.26,14.44,15.11,10.29,35.68-3.73,17.73-5.92,30-6.35,37h-31.95c-.22-6.13,2.4-21.23,5.91-38.95,3.5-16.85.87-22.54-11.82-22.54Zm5.26-24.74h8.53c11.6,0,18.6-2.62,21.45-16.41,2.62-12.91-1.32-20.57-13.57-20.57h-8.54Z"/><path class="cls-1" d="M1228.84,26.7h-28.23l5.9-26.7h88.86l-5.92,26.7h-27.57l-25.82,121h-32.83Z"/><path class="cls-1" d="M960.49,312.23H935.76c0-2.63.66-8.76,1.1-12-7,10.73-16.2,14.67-29.11,14.67-27.35,0-37.64-25.39-26.26-79.44,11.38-55.15,32.17-73.75,60.84-73.75,37,0,41.8,28,39.83,43.55H949.55c.87-7.23,1.75-17.73-9.19-17.73-10.51,0-18.38,13.35-25.83,49.46s-6.34,51.87,6.13,51.87c10.29,0,14.44-9,17.51-24.74l2.19-9.84H925.91l5.69-26h46.62Z"/><path class="cls-1" d="M1069.92,248.77h-43.55l-7.66,36.76h51.65l-9.19,26.7h-81l31.51-147.72h78.13l-5.91,26.7h-45.52l-6.35,30.86h43.55Z"/><path class="cls-1" d="M1119.61,278.75l-12.47,33.48h-33.49l59.53-147.72H1180l-2,147.72h-32.61l1.32-33.48Zm27.79-26.48c1.1-23,2.63-49,3.72-62.59h-.87c-3.94,13.57-12.26,37.86-20.79,62.59Z"/><path class="cls-1" d="M1235.17,250.74l-12.91,61.49h-32.83L1221,164.51h43.76c33.49,0,44.65,20.13,39,45.74-4.38,19.25-16,26.48-26,29.32,9.84,5.26,14.44,15.1,10.28,35.68-3.71,17.73-5.91,30-6.34,37h-32c-.22-6.13,2.4-21.23,5.9-39,3.51-16.85.88-22.54-11.81-22.54Zm5.25-24.74H1249c11.6,0,18.6-2.62,21.45-16.41,2.62-12.91-1.32-20.57-13.57-20.57h-8.54Z"/><path class="cls-1" d="M940.59,433.88c-5.26,20.8-15.54,46.84-51,46.84-36.11,0-47.71-24.73-35.68-80.54,10.29-47.48,27.14-72.65,60.41-72.65,34.13,0,41.14,23.85,37.86,46.61H919.8c1.31-10.94,2-21-8.32-21-10.51,0-17.07,15.1-24.07,48.59-7.66,36.11-8.32,53.17,4.16,53.17,9,0,13.78-10.94,16.19-21Z"/><path class="cls-1" d="M1053.74,408.93c-12,55.59-31.29,71.79-59.52,71.79-35,0-48.36-24.51-35.67-82.94,11.16-51.44,31.51-70.25,58.86-70.25C1050.46,327.53,1066.88,348.31,1053.74,408.93Zm-61.93-7.87c-8.1,37.2-8.1,53.62,4.38,53.62,9.85,0,15.54-9.2,24.29-48.81,8.1-36.1,9-52.08-4.38-52.08C1005.82,353.79,999.25,366,991.81,401.06Z"/><circle class="cls-1" cx="1067.54" cy="461.32" r="11.88"/></g></g></svg>